<svg width="24" height="24" viewBox="0 0 24 24" fill="none" xmlns="http://www.w3.org/2000/svg">
<path d="M11.9996 15.25L11.9996 13.75" stroke="black" stroke-width="1.5" stroke-linecap="round" stroke-linejoin="round"/>
<path d="M7.14622 9.75C6.50518 9.75 5.88643 10.0489 5.58676 10.6156C5.05251 11.6259 4.75 12.7776 4.75 14C4.75 18.0041 7.99594 21.25 12 21.25C16.0041 21.25 19.25 18.0041 19.25 14C19.25 12.7776 18.9475 11.6259 18.4132 10.6156C18.1136 10.0489 17.4948 9.75 16.8538 9.75H7.14622Z" stroke="black" stroke-width="1.5" stroke-linecap="round" stroke-linejoin="round"/>
<path d="M16.2502 9.75L16.2501 6.99994C16.2501 4.65275 14.3473 2.75 12.0001 2.75V2.75C9.65282 2.75 7.75 4.65282 7.75 7.00006V9.75" stroke="black" stroke-width="1.5" stroke-linecap="round" stroke-linejoin="round"/>
</svg>
