<svg width="24" height="24" viewBox="0 0 24 24" fill="none" xmlns="http://www.w3.org/2000/svg">
    <path
        d="M18.2501 11.25C19.907 11.25 21.2502 9.90681 21.2501 8.24992L21.2501 6.74992C21.25 5.0931 19.9069 3.75 18.2501 3.75L5.75 3.75C4.09315 3.75 2.75 5.09315 2.75 6.75V8.25C2.75 9.90685 4.09315 11.25 5.75 11.25H18.2501Z"
        stroke="black" stroke-width="1.5" stroke-linecap="round" stroke-linejoin="round" />
    <path
        d="M3.75 17H15.7541M4.75195 16.998L4.75195 20.25M7.75195 16.998V19.25M20.25 17C20.25 18.2426 19.2426 19.25 18 19.25C16.7574 19.25 15.75 18.2426 15.75 17C15.75 15.7574 16.7574 14.75 18 14.75C19.2426 14.75 20.25 15.7574 20.25 17Z"
        stroke="black" stroke-width="1.5" stroke-linecap="round" stroke-linejoin="round" />
    <path
        d="M8.25 7.4978C8.25 7.91202 7.91421 8.2478 7.5 8.2478C7.08579 8.2478 6.75 7.91202 6.75 7.4978C6.75 7.08359 7.08579 6.7478 7.5 6.7478C7.91421 6.7478 8.25 7.08359 8.25 7.4978Z"
        stroke="black" stroke-width="1.5" stroke-linecap="round" stroke-linejoin="round" />
    <path
        d="M12.75 7.4978C12.75 7.91202 12.4142 8.2478 12 8.2478C11.5858 8.2478 11.25 7.91202 11.25 7.4978C11.25 7.08359 11.5858 6.7478 12 6.7478C12.4142 6.7478 12.75 7.08359 12.75 7.4978Z"
        stroke="black" stroke-width="1.5" stroke-linecap="round" stroke-linejoin="round" />
    <path
        d="M17.25 7.4978C17.25 7.91202 16.9142 8.2478 16.5 8.2478C16.0858 8.2478 15.75 7.91202 15.75 7.4978C15.75 7.08359 16.0858 6.7478 16.5 6.7478C16.9142 6.7478 17.25 7.08359 17.25 7.4978Z"
        stroke="black" stroke-width="1.5" stroke-linecap="round" stroke-linejoin="round" />
</svg>