<svg width="24" height="24" viewBox="0 0 24 24" fill="none" xmlns="http://www.w3.org/2000/svg">
<path d="M9.75 4.23767C9.75 3.41605 10.4161 2.75 11.2377 2.75H12.7623C13.5839 2.75 14.25 3.41607 14.25 4.2377V4.53677C14.25 6.1217 15.9657 7.11228 17.3383 6.31981C17.9948 5.94078 18.8343 6.16571 19.2133 6.82221L20.0907 8.34195C20.4698 8.99844 20.2448 9.83789 19.5883 10.2169C18.2158 11.0094 18.2158 12.9905 19.5883 13.7829C20.2448 14.162 20.4698 15.0014 20.0907 15.6579L19.2133 17.1776C18.8343 17.8341 17.9948 18.0591 17.3383 17.68C15.9657 16.8876 14.25 17.8782 14.25 19.4631V19.7623C14.25 20.5839 13.5839 21.25 12.7623 21.25H11.2377C10.4161 21.25 9.75 20.5839 9.75 19.7623V19.4632C9.75 17.8782 8.03427 16.8877 6.66169 17.6801C6.00519 18.0592 5.16574 17.8342 4.78671 17.1777L3.9093 15.658C3.53027 15.0015 3.7552 14.162 4.41171 13.783C5.78432 12.9905 5.78432 11.0093 4.41171 10.2169C3.7552 9.83782 3.53026 8.99834 3.9093 8.34183L4.7867 6.82213C5.16573 6.16563 6.00519 5.9407 6.66169 6.31973C8.03427 7.11219 9.75 6.12161 9.75 4.53669V4.23767Z" stroke="black" stroke-width="1.5" stroke-linecap="round" stroke-linejoin="round"/>
<path d="M15.2495 12C15.2495 13.7949 13.7944 15.25 11.9995 15.25C10.2046 15.25 8.74951 13.7949 8.74951 12C8.74951 10.2051 10.2046 8.75 11.9995 8.75C13.7944 8.75 15.2495 10.2051 15.2495 12Z" stroke="black" stroke-width="1.5" stroke-linecap="round" stroke-linejoin="round"/>
</svg>
