<svg width="24" height="24" viewBox="0 0 24 24" fill="none" xmlns="http://www.w3.org/2000/svg">
<path d="M10.25 20.2495C6.12807 17.5288 3.74902 13.2742 3.74902 8.33351V5.60069C3.74902 5.07696 4.054 4.60123 4.52976 4.38282C9.2721 2.20573 14.7275 2.20573 19.4698 4.38282C19.9456 4.60123 20.2506 5.07696 20.2506 5.60069V9.33404" stroke="black" stroke-width="1.5" stroke-linecap="round" stroke-linejoin="round"/>
<path d="M19.25 15.7471L14.75 15.7471M19.25 15.7471C19.8023 15.7471 20.25 16.195 20.25 16.7476L20.2502 20.2494C20.2502 20.802 19.8025 21.25 19.2502 21.25H14.75C14.1977 21.25 13.75 20.802 13.75 20.2495V16.7476C13.75 16.195 14.1977 15.7471 14.75 15.7471M19.25 15.7471L19.2501 13.9961C19.25 12.7528 18.2427 11.745 17.0001 11.745C15.7574 11.745 14.75 12.7529 14.75 13.9962L14.75 15.7471" stroke="black" stroke-width="1.5" stroke-linecap="round" stroke-linejoin="round"/>
</svg>
