<svg width="24" height="24" viewBox="0 0 24 24" fill="none" xmlns="http://www.w3.org/2000/svg">
<path d="M5.44273 5.47534C3.77853 7.14794 2.75 9.45361 2.75 11.9995C2.75 14.5454 3.77853 16.8509 5.44273 18.5235M18.5573 5.47534C20.2215 7.14794 21.25 9.45361 21.25 11.9995C21.25 14.5454 20.2215 16.8509 18.5573 18.5235" stroke="black" stroke-width="1.5" stroke-linecap="round" stroke-linejoin="round"/>
<path d="M7.58241 7.57875C6.45031 8.70992 5.75 10.2732 5.75 12C5.75 13.7268 6.45032 15.2888 7.58243 16.42M16.4176 7.57874C17.5497 8.70991 18.25 10.2732 18.25 12C18.25 13.7268 17.5497 15.2888 16.4176 16.42" stroke="black" stroke-width="1.5" stroke-linecap="round" stroke-linejoin="round"/>
<path d="M15.25 12C15.25 13.7949 13.7949 15.25 12 15.25C10.2051 15.25 8.75 13.7949 8.75 12C8.75 10.2051 10.2051 8.75 12 8.75C13.7949 8.75 15.25 10.2051 15.25 12Z" stroke="black" stroke-width="1.5" stroke-linecap="round" stroke-linejoin="round"/>
</svg>
