<svg width="24" height="24" viewBox="0 0 24 24" fill="none" xmlns="http://www.w3.org/2000/svg">
    <path
        d="M21.25 11.9995C21.25 17.1081 17.1086 21.2495 12 21.2495C6.89137 21.2495 2.75 17.1081 2.75 11.9995C2.75 6.89088 6.89137 2.74951 12 2.74951C17.1086 2.74951 21.25 6.89088 21.25 11.9995Z"
        stroke="black" stroke-width="1.5" />
    <path
        d="M15.25 10C15.25 11.7949 13.7949 13.25 12 13.25C10.2051 13.25 8.75 11.7949 8.75 10C8.75 8.20507 10.2051 6.75 12 6.75C13.7949 6.75 15.25 8.20507 15.25 10Z"
        stroke="black" stroke-width="1.5" stroke-linejoin="round" />
    <path
        d="M5.35413 18.4285C7.10018 16.4974 9.46565 15.75 11.9992 15.75C14.5349 15.75 16.9025 16.498 18.6509 18.4298"
        stroke="black" stroke-width="1.5" stroke-linecap="round" stroke-linejoin="round" />
</svg>