<svg width="196" height="196" viewBox="0 0 196 196" fill="none" xmlns="http://www.w3.org/2000/svg">
    <rect x="45.2987" y="59.6262" width="21.6764" height="129.026" rx="6" transform="rotate(-45 45.2987 59.6262)" fill="#0396FF" />
    <rect x="136.534" y="44.2993" width="21.6764" height="129.026" rx="6" transform="rotate(45 136.534 44.2993)" fill="#0396FF" />
    <rect width="30.9663" height="24.773" rx="6" transform="matrix(0.707107 -0.707107 -0.707107 -0.707107 140.103 115.017)" fill="url(#paint0_linear)" fill-opacity="0.66" />
    <rect width="30.9663" height="24.773" rx="6" transform="matrix(0.707107 -0.707107 -0.707107 -0.707107 94.1205 161)" fill="url(#paint1_linear)" fill-opacity="0.66" />
    <rect width="30.9663" height="24.773" rx="6" transform="matrix(0.707107 -0.707107 -0.707107 -0.707107 52.5171 119.396)" fill="url(#paint2_linear)" fill-opacity="0.66" />
    <rect width="30.9663" height="24.773" rx="6" transform="matrix(0.707107 -0.707107 -0.707107 -0.707107 98.4996 73.4136)" fill="url(#paint3_linear)" fill-opacity="0.66" />
    <defs>
        <linearGradient id="paint0_linear" x1="-0.531493" y1="12.3043" x2="30.4685" y2="12.3043" gradientUnits="userSpaceOnUse">
            <stop stop-color="#0396FF" />
            <stop offset="0.0001" stop-color="#0396FF" stop-opacity="0.989583" />
            <stop offset="1" stop-color="#0396FF" stop-opacity="0" />
        </linearGradient>
        <linearGradient id="paint1_linear" x1="31.4978" y1="12.3044" x2="0.497802" y2="12.3044" gradientUnits="userSpaceOnUse">
            <stop stop-color="#0396FF" />
            <stop offset="1" stop-color="#0396FF" stop-opacity="0" />
        </linearGradient>
        <linearGradient id="paint2_linear" x1="30.4978" y1="12.4684" x2="0.497805" y2="12.4684" gradientUnits="userSpaceOnUse">
            <stop stop-color="#0396FF" />
            <stop offset="1" stop-color="#0396FF" stop-opacity="0" />
        </linearGradient>
        <linearGradient id="paint3_linear" x1="0.468263" y1="12.468" x2="30.4683" y2="12.468" gradientUnits="userSpaceOnUse">
            <stop stop-color="#0396FF" />
            <stop offset="1" stop-color="#0396FF" stop-opacity="0" />
        </linearGradient>
    </defs>
</svg>